<?xml version="1.0" encoding="utf-8"?>
<!-- Generator: Fusion 360, Shaper Origin Export Add-In, Version 1.5.0  -->
<svg enable-background="new 0 0 7.8 5.8" height="5.8cm" shaper:fusionaddin="version:1.5.0" version="1.1" viewBox="0 0 7.8 5.8" width="7.8cm" x="0cm" xml:space="preserve" xmlns="http://www.w3.org/2000/svg" xmlns:shaper="http://www.shapertools.com/namespaces/shaper" xmlns:xlink="http://www.w3.org/1999/xlink" y="0cm"><path d="M0.375,3.475 L0.175,3.475 -0.116718,3.5779593 A0.1,0.1 70.5599652 0,1 -0.25,3.4836603 L-0.25,0.25 A0.25,0.25 180 0,1 -0,-0 L7.3,0 A0.25,0.25 270 0,1 7.55,0.25 L7.55,3.4836603 A0.1,0.1 0 0,1 7.416718,3.5779593 L7.125,3.475 6.925,3.475 6.925,3.975 7.125,3.975 7.416718,3.8720407 A0.1,0.1 250.5599652 0,1 7.55,3.9663397 L7.55,4.75 A0.25,0.25 0 0,1 7.3,5 L7.05,5 7.05,5.55 A0.25,0.25 0 0,1 6.8,5.8 L0.5,5.8 A0.25,0.25 90 0,1 0.25,5.55 L0.25,5 0,5 A0.25,0.25 90 0,1 -0.25,4.75 L-0.25,3.9663397 A0.1,0.1 180 0,1 -0.116718,3.8720407 L0.175,3.975 0.375,3.975 0.375,3.475z" fill="rgb(0,0,0)" shaper:cutDepth="0.0025" shaper:pathType="exterior" transform="matrix(1,0,0,-1,0.25,5.8)" vector-effect="non-scaling-stroke" /><path d="M7.09,4.7 a0.16,0.16 0 1,1 0.32,0 a0.16,0.16 0 1,1 -0.32,0z" fill="rgb(255,255,255)" shaper:cutDepth="0.0025" shaper:pathType="interior" stroke="rgb(0,0,0)" transform="matrix(1,0,0,-1,0.25,5.8)" vector-effect="non-scaling-stroke" /><path d="M-0.11,4.7 a0.16,0.16 0 1,1 0.32,0 a0.16,0.16 0 1,1 -0.32,0z" fill="rgb(255,255,255)" shaper:cutDepth="0.0025" shaper:pathType="interior" stroke="rgb(0,0,0)" transform="matrix(1,0,0,-1,0.25,5.8)" vector-effect="non-scaling-stroke" /><path d="M6.39,0.5 a0.16,0.16 0 1,1 0.32,0 a0.16,0.16 0 1,1 -0.32,0z" fill="rgb(255,255,255)" shaper:cutDepth="0.0025" shaper:pathType="interior" stroke="rgb(0,0,0)" transform="matrix(1,0,0,-1,0.25,5.8)" vector-effect="non-scaling-stroke" /><path d="M0.59,0.5 a0.16,0.16 0 1,1 0.32,0 a0.16,0.16 0 1,1 -0.32,0z" fill="rgb(255,255,255)" shaper:cutDepth="0.0025" shaper:pathType="interior" stroke="rgb(0,0,0)" transform="matrix(1,0,0,-1,0.25,5.8)" vector-effect="non-scaling-stroke" /><path d="M0.59,5.4 a0.16,0.16 0 1,1 0.32,0 a0.16,0.16 0 1,1 -0.32,0z" fill="rgb(255,255,255)" shaper:cutDepth="0.0025" shaper:pathType="interior" stroke="rgb(0,0,0)" transform="matrix(1,0,0,-1,0.25,5.8)" vector-effect="non-scaling-stroke" /><path d="M6.25,5.6 L6.25,5.15 6.725,5.15 6.725,0.75 6.225,0.75 6.225,0.2 1.075,0.2 1.075,0.75 0.575,0.75 0.575,5.15 1.05,5.15 1.05,5.6 6.25,5.6z" fill="rgb(255,255,255)" shaper:cutDepth="0.0025" shaper:pathType="interior" stroke="rgb(0,0,0)" transform="matrix(1,0,0,-1,0.25,5.8)" vector-effect="non-scaling-stroke" /><path d="M6.39,5.4 a0.16,0.16 0 1,1 0.32,0 a0.16,0.16 0 1,1 -0.32,0z" fill="rgb(255,255,255)" shaper:cutDepth="0.0025" shaper:pathType="interior" stroke="rgb(0,0,0)" transform="matrix(1,0,0,-1,0.25,5.8)" vector-effect="non-scaling-stroke" /><path d="M-0.11,2.75 a0.16,0.16 0 1,1 0.32,0 a0.16,0.16 0 1,1 -0.32,0z" fill="rgb(255,255,255)" shaper:cutDepth="0.0025" shaper:pathType="interior" stroke="rgb(0,0,0)" transform="matrix(1,0,0,-1,0.25,5.8)" vector-effect="non-scaling-stroke" /><path d="M7.09,2.75 a0.16,0.16 0 1,1 0.32,0 a0.16,0.16 0 1,1 -0.32,0z" fill="rgb(255,255,255)" shaper:cutDepth="0.0025" shaper:pathType="interior" stroke="rgb(0,0,0)" transform="matrix(1,0,0,-1,0.25,5.8)" vector-effect="non-scaling-stroke" /><path d="M-0.1,0.95 a0.15,0.15 0 1,1 0.3,0 a0.15,0.15 0 1,1 -0.3,0z" fill="rgb(255,255,255)" shaper:cutDepth="0.0025" shaper:pathType="interior" stroke="rgb(0,0,0)" transform="matrix(1,0,0,-1,0.25,5.8)" vector-effect="non-scaling-stroke" /><path d="M7.1,0.95 a0.15,0.15 0 1,1 0.3,0 a0.15,0.15 0 1,1 -0.3,0z" fill="rgb(255,255,255)" shaper:cutDepth="0.0025" shaper:pathType="interior" stroke="rgb(0,0,0)" transform="matrix(1,0,0,-1,0.25,5.8)" vector-effect="non-scaling-stroke" /></svg>