<?xml version='1.0' encoding='UTF-8' standalone='no'?>
<!-- Created with Fritzing (http://www.fritzing.org/) -->
<svg xmlns="http://www.w3.org/2000/svg" xmlns:svg="http://www.w3.org/2000/svg" viewBox="0 0 208.795 184.624" width="2.89993in" version="1.2"  y="0in" x="0in" baseProfile="tiny" height="2.56422in">
 <g transform="matrix(-1, 0, 0, 1, 208.795, 0)">
  <g partID="57661">
   <g id="silkscreen">
    <rect stroke-width="0.576" fill="none" width="208.219" stroke="black" y="0.288" x="0.288" height="184.048"/>
   </g>
  </g>
  <g partID="57660">
   <g id="board">
    <rect id="boardoutline" stroke-width="0.5" fill-opacity="0.5" fill="none" width="208.219" stroke="black" y="0.288" x="0.288" height="184.048"/>
   </g>
  </g>
  <g partID="57762">
   <g transform="translate(20.5256,147.714)">
    <g id="silkscreen">
     <path id="Curve_0" stroke-width="0.5" fill="none" d="M9.11,0.076l166.599,0c4.735,0,8.466,3.781,8.466,8.489l0,67.341c0,4.709,-3.803,8.489,-8.466,8.489L9.11,84.395c-4.735,0,-8.466,-3.78,-8.466,-8.489L0.644,8.566C0.644,3.858,4.446,0.076,9.11,0.076z" stroke="black"/>
     <circle id="path3429" r="3.898" cx="10.236" cy="9.595"/>
     <circle id="ellipse3431" r="3.898" cx="174.643" cy="9.595"/>
     <circle id="ellipse3433" r="3.898" cx="10.236" cy="74.809"/>
     <circle id="ellipse3435" r="3.897" cx="174.643" cy="74.792"/>
    </g>
   </g>
  </g>
  <g partID="855424942">
   <g transform="translate(133.069,37.1128)">
    <g id="silkscreen">
     <line stroke-width="0.72" x2="1.44" stroke="black" x1="1.44" y1="1.44" y2="15.84"/>
     <line stroke-width="0.72" x2="8.64" stroke="black" x1="1.44" y1="15.84" y2="15.84"/>
     <line stroke-width="0.72" x2="8.64" stroke="black" x1="8.64" y1="15.84" y2="1.44"/>
     <line stroke-width="0.72" x2="1.44" stroke="black" x1="8.64" y1="1.44" y2="1.44"/>
     <line stroke-width="0.36" x2="3.96" stroke="black" x1="1.44" y1="3.96" y2="1.44"/>
     <!-- 120 -->
    </g>
   </g>
  </g>
  <g partID="855424102">
   <g transform="translate(143.149,29.1928)">
    <g transform="matrix(-1,0,0,-1,0,0)">
     <g id="silkscreen">
      <line stroke-width="0.72" x2="1.44" stroke="black" x1="1.44" y1="1.44" y2="15.84"/>
      <line stroke-width="0.72" x2="8.64" stroke="black" x1="1.44" y1="15.84" y2="15.84"/>
      <line stroke-width="0.72" x2="8.64" stroke="black" x1="8.64" y1="15.84" y2="1.44"/>
      <line stroke-width="0.72" x2="1.44" stroke="black" x1="8.64" y1="1.44" y2="1.44"/>
      <line stroke-width="0.36" x2="3.96" stroke="black" x1="1.44" y1="3.96" y2="1.44"/>
      <!-- 120 -->
     </g>
    </g>
   </g>
  </g>
  <g partID="855085802">
   <g transform="translate(53.8688,36.3928)">
    <g transform="matrix(0,-1,1,0,0,0)">
     <g id="silkscreen">
      <line stroke-width="0.72" x2="1.44" stroke="black" x1="1.44" y1="1.44" y2="15.84"/>
      <line stroke-width="0.72" x2="8.64" stroke="black" x1="1.44" y1="15.84" y2="15.84"/>
      <line stroke-width="0.72" x2="8.64" stroke="black" x1="8.64" y1="15.84" y2="1.44"/>
      <line stroke-width="0.72" x2="1.44" stroke="black" x1="8.64" y1="1.44" y2="1.44"/>
      <line stroke-width="0.36" x2="3.96" stroke="black" x1="1.44" y1="3.96" y2="1.44"/>
      <!-- 120 -->
     </g>
    </g>
   </g>
  </g>
  <g partID="57661">
   <g id="silkscreen">
    <rect stroke-width="0.576" fill="none" width="208.219" stroke="black" y="0.288" x="0.288" height="184.048"/>
   </g>
  </g>
  <g partID="855045052">
   <g transform="translate(157.549,129.993)">
    <g transform="matrix(-1,0,0,-1,0,0)">
     <g id="silkscreen">
      <line stroke-width="0.72" x2="1.44" stroke="black" x1="1.44" y1="1.44" y2="23.04"/>
      <line stroke-width="0.72" x2="8.64" stroke="black" x1="1.44" y1="23.04" y2="23.04"/>
      <line stroke-width="0.72" x2="8.64" stroke="black" x1="8.64" y1="23.04" y2="1.44"/>
      <line stroke-width="0.72" x2="1.44" stroke="black" x1="8.64" y1="1.44" y2="1.44"/>
      <line stroke-width="0.36" x2="3.96" stroke="black" x1="1.44" y1="3.96" y2="1.44"/>
      <!-- 120 -->
     </g>
    </g>
   </g>
  </g>
  <g partID="855044492">
   <g transform="translate(143.149,129.993)">
    <g transform="matrix(-1,0,0,-1,0,0)">
     <g id="silkscreen">
      <line stroke-width="0.72" x2="1.44" stroke="black" x1="1.44" y1="1.44" y2="23.04"/>
      <line stroke-width="0.72" x2="8.64" stroke="black" x1="1.44" y1="23.04" y2="23.04"/>
      <line stroke-width="0.72" x2="8.64" stroke="black" x1="8.64" y1="23.04" y2="1.44"/>
      <line stroke-width="0.72" x2="1.44" stroke="black" x1="8.64" y1="1.44" y2="1.44"/>
      <line stroke-width="0.36" x2="3.96" stroke="black" x1="1.44" y1="3.96" y2="1.44"/>
      <!-- 120 -->
     </g>
    </g>
   </g>
  </g>
  <g partID="855043932">
   <g transform="translate(128.749,129.993)">
    <g transform="matrix(-1,0,0,-1,0,0)">
     <g id="silkscreen">
      <line stroke-width="0.72" x2="1.44" stroke="black" x1="1.44" y1="1.44" y2="23.04"/>
      <line stroke-width="0.72" x2="8.64" stroke="black" x1="1.44" y1="23.04" y2="23.04"/>
      <line stroke-width="0.72" x2="8.64" stroke="black" x1="8.64" y1="23.04" y2="1.44"/>
      <line stroke-width="0.72" x2="1.44" stroke="black" x1="8.64" y1="1.44" y2="1.44"/>
      <line stroke-width="0.36" x2="3.96" stroke="black" x1="1.44" y1="3.96" y2="1.44"/>
      <!-- 120 -->
     </g>
    </g>
   </g>
  </g>
  <g partID="855047852">
   <g transform="translate(114.349,129.993)">
    <g transform="matrix(-1,0,0,-1,0,0)">
     <g id="silkscreen">
      <line stroke-width="0.72" x2="1.44" stroke="black" x1="1.44" y1="1.44" y2="23.04"/>
      <line stroke-width="0.72" x2="8.64" stroke="black" x1="1.44" y1="23.04" y2="23.04"/>
      <line stroke-width="0.72" x2="8.64" stroke="black" x1="8.64" y1="23.04" y2="1.44"/>
      <line stroke-width="0.72" x2="1.44" stroke="black" x1="8.64" y1="1.44" y2="1.44"/>
      <line stroke-width="0.36" x2="3.96" stroke="black" x1="1.44" y1="3.96" y2="1.44"/>
      <!-- 120 -->
     </g>
    </g>
   </g>
  </g>
  <g partID="855047292">
   <g transform="translate(99.9488,129.993)">
    <g transform="matrix(-1,0,0,-1,0,0)">
     <g id="silkscreen">
      <line stroke-width="0.72" x2="1.44" stroke="black" x1="1.44" y1="1.44" y2="23.04"/>
      <line stroke-width="0.72" x2="8.64" stroke="black" x1="1.44" y1="23.04" y2="23.04"/>
      <line stroke-width="0.72" x2="8.64" stroke="black" x1="8.64" y1="23.04" y2="1.44"/>
      <line stroke-width="0.72" x2="1.44" stroke="black" x1="8.64" y1="1.44" y2="1.44"/>
      <line stroke-width="0.36" x2="3.96" stroke="black" x1="1.44" y1="3.96" y2="1.44"/>
      <!-- 120 -->
     </g>
    </g>
   </g>
  </g>
  <g partID="855046732">
   <g transform="translate(85.5488,129.993)">
    <g transform="matrix(-1,0,0,-1,0,0)">
     <g id="silkscreen">
      <line stroke-width="0.72" x2="1.44" stroke="black" x1="1.44" y1="1.44" y2="23.04"/>
      <line stroke-width="0.72" x2="8.64" stroke="black" x1="1.44" y1="23.04" y2="23.04"/>
      <line stroke-width="0.72" x2="8.64" stroke="black" x1="8.64" y1="23.04" y2="1.44"/>
      <line stroke-width="0.72" x2="1.44" stroke="black" x1="8.64" y1="1.44" y2="1.44"/>
      <line stroke-width="0.36" x2="3.96" stroke="black" x1="1.44" y1="3.96" y2="1.44"/>
      <!-- 120 -->
     </g>
    </g>
   </g>
  </g>
  <g partID="855046172">
   <g transform="translate(71.1488,129.993)">
    <g transform="matrix(-1,0,0,-1,0,0)">
     <g id="silkscreen">
      <line stroke-width="0.72" x2="1.44" stroke="black" x1="1.44" y1="1.44" y2="23.04"/>
      <line stroke-width="0.72" x2="8.64" stroke="black" x1="1.44" y1="23.04" y2="23.04"/>
      <line stroke-width="0.72" x2="8.64" stroke="black" x1="8.64" y1="23.04" y2="1.44"/>
      <line stroke-width="0.72" x2="1.44" stroke="black" x1="8.64" y1="1.44" y2="1.44"/>
      <line stroke-width="0.36" x2="3.96" stroke="black" x1="1.44" y1="3.96" y2="1.44"/>
      <!-- 120 -->
     </g>
    </g>
   </g>
  </g>
  <g partID="855430412">
   <g transform="translate(154.618,11.9216)">
    <g id="silkscreen">
     <line stroke-width="0.72" x2="1.44" stroke="black" x1="1.44" y1="1.44" y2="80.64"/>
     <line stroke-width="0.72" x2="8.64" stroke="black" x1="1.44" y1="80.64" y2="80.64"/>
     <line stroke-width="0.72" x2="8.64" stroke="black" x1="8.64" y1="80.64" y2="1.44"/>
     <line stroke-width="0.72" x2="1.44" stroke="black" x1="8.64" y1="1.44" y2="1.44"/>
     <line stroke-width="0.36" x2="3.96" stroke="black" x1="1.44" y1="3.96" y2="1.44"/>
     <!-- 120 -->
    </g>
   </g>
  </g>
  <g partID="855020842">
   <g transform="translate(17.8688,40.7128)">
    <g id="silkscreen">
     <line stroke-width="0.72" x2="1.44" stroke="black" x1="1.44" y1="1.44" y2="51.84"/>
     <line stroke-width="0.72" x2="8.64" stroke="black" x1="1.44" y1="51.84" y2="51.84"/>
     <line stroke-width="0.72" x2="8.64" stroke="black" x1="8.64" y1="51.84" y2="1.44"/>
     <line stroke-width="0.72" x2="1.44" stroke="black" x1="8.64" y1="1.44" y2="1.44"/>
     <line stroke-width="0.36" x2="3.96" stroke="black" x1="1.44" y1="3.96" y2="1.44"/>
     <!-- 120 -->
    </g>
   </g>
  </g>
  <g partID="855019212">
   <g transform="translate(89.8688,40.7128)">
    <g id="silkscreen">
     <line stroke-width="0.72" x2="1.44" stroke="black" x1="1.44" y1="1.44" y2="51.84"/>
     <line stroke-width="0.72" x2="8.64" stroke="black" x1="1.44" y1="51.84" y2="51.84"/>
     <line stroke-width="0.72" x2="8.64" stroke="black" x1="8.64" y1="51.84" y2="1.44"/>
     <line stroke-width="0.72" x2="1.44" stroke="black" x1="8.64" y1="1.44" y2="1.44"/>
     <line stroke-width="0.36" x2="3.96" stroke="black" x1="1.44" y1="3.96" y2="1.44"/>
     <!-- 120 -->
    </g>
   </g>
  </g>
  <g partID="855123712">
   <g transform="translate(17.8688,137.193)">
    <g transform="matrix(0,-1,1,0,0,0)">
     <g id="silkscreen">
      <line stroke-width="0.72" x2="1.44" stroke="black" x1="1.44" y1="1.44" y2="37.44"/>
      <line stroke-width="0.72" x2="8.64" stroke="black" x1="1.44" y1="37.44" y2="37.44"/>
      <line stroke-width="0.72" x2="8.64" stroke="black" x1="8.64" y1="37.44" y2="1.44"/>
      <line stroke-width="0.72" x2="1.44" stroke="black" x1="8.64" y1="1.44" y2="1.44"/>
      <line stroke-width="0.36" x2="3.96" stroke="black" x1="1.44" y1="3.96" y2="1.44"/>
      <!-- 120 -->
     </g>
    </g>
   </g>
  </g>
  <g partID="854963502">
   <g transform="translate(17.8688,122.793)">
    <g transform="matrix(0,-1,1,0,0,0)">
     <g id="silkscreen">
      <line stroke-width="0.72" x2="1.44" stroke="black" x1="1.44" y1="1.44" y2="37.44"/>
      <line stroke-width="0.72" x2="8.64" stroke="black" x1="1.44" y1="37.44" y2="37.44"/>
      <line stroke-width="0.72" x2="8.64" stroke="black" x1="8.64" y1="37.44" y2="1.44"/>
      <line stroke-width="0.72" x2="1.44" stroke="black" x1="8.64" y1="1.44" y2="1.44"/>
      <line stroke-width="0.36" x2="3.96" stroke="black" x1="1.44" y1="3.96" y2="1.44"/>
      <!-- 120 -->
     </g>
    </g>
   </g>
  </g>
  <g partID="855461962">
   <g transform="translate(17.8688,108.393)">
    <g transform="matrix(0,-1,1,0,0,0)">
     <g id="silkscreen">
      <line stroke-width="0.72" x2="1.44" stroke="black" x1="1.44" y1="1.44" y2="37.44"/>
      <line stroke-width="0.72" x2="8.64" stroke="black" x1="1.44" y1="37.44" y2="37.44"/>
      <line stroke-width="0.72" x2="8.64" stroke="black" x1="8.64" y1="37.44" y2="1.44"/>
      <line stroke-width="0.72" x2="1.44" stroke="black" x1="8.64" y1="1.44" y2="1.44"/>
      <line stroke-width="0.36" x2="3.96" stroke="black" x1="1.44" y1="3.96" y2="1.44"/>
      <!-- 120 -->
     </g>
    </g>
   </g>
  </g>
  <g partID="854968232">
   <g transform="translate(105.762,97.7408)">
    <g transform="matrix(0,-1,1,0,0,0)">
     <g id="silkscreen">
      <path id="path2820" stroke-width="0.56696" stroke-linejoin="round" fill="none" d="M13.912,0.3048c3.748,2.8296,4.4912,8.1624,1.6608,11.9112c-2.8304,3.748,-8.1632,4.4912,-11.9112,1.6608S-0.8288,5.7128,2.0016,1.9656C2.4824,1.328,3.0504,0.7616,3.6904,0.2832" stroke="black" stroke-linecap="round"/>
      <path id="path3707" stroke-width="0.56696" fill="none" d="M13.8896,0.2872L3.6848,0.2872" stroke="black" stroke-linecap="round"/>
     </g>
    </g>
   </g>
  </g>
  <g partID="854968262">
   <g transform="translate(126.555,32.1065)">
    <g transform="matrix(0,1,-1,0,0,0)">
     <g id="silkscreen">
      <line stroke-width="0.72" x2="20.137" stroke="black" x1="20.137" y1="6.38928" y2="12.0586"/>
      <line stroke-width="0.72" x2="18.0115" stroke="black" x1="5.96376" y1="0.72" y2="0.72"/>
      <line stroke-width="0.72" x2="18.0115" stroke="black" x1="5.96376" y1="17.7278" y2="17.7278"/>
      <line stroke-width="0.72" x2="3.12912" stroke="black" x1="3.12912" y1="6.38928" y2="12.0586"/>
      <line stroke-width="0.72" x2="11.633" stroke="black" x1="11.633" y1="7.80696" y2="10.6416"/>
      <line stroke-width="0.72" x2="10.2161" stroke="black" x1="13.0507" y1="9.22392" y2="9.22392"/>
     </g>
    </g>
   </g>
  </g>
  <g partID="855074042">
   <g transform="translate(148.405,100.653)">
    <g transform="matrix(0,1,-1,0,0,0)">
     <g id="silkscreen">
      <line stroke-width="0.72" x2="10.584" stroke="black" y1="3.096" x1="5.4" y2="3.096"/>
      <line stroke-width="0.72" x2="28.8" stroke="black" y1="3.096" x1="24.984" y2="3.096"/>
      <line stroke-width="0.72" x2="24.984" stroke="black" y1="0.72" x1="10.584" y2="0.72"/>
      <line stroke-width="0.72" x2="24.984" stroke="black" y1="0.72" x1="24.984" y2="5.472"/>
      <line stroke-width="0.72" x2="10.584" stroke="black" y1="5.472" x1="24.984" y2="5.472"/>
      <line stroke-width="0.72" x2="10.584" stroke="black" y1="5.472" x1="10.584" y2="0.72"/>
     </g>
    </g>
   </g>
  </g>
  <g partID="854968292">
   <g transform="translate(119.605,100.653)">
    <g transform="matrix(0,1,-1,0,0,0)">
     <g id="silkscreen">
      <line stroke-width="0.72" x2="10.584" stroke="black" y1="3.096" x1="5.4" y2="3.096"/>
      <line stroke-width="0.72" x2="28.8" stroke="black" y1="3.096" x1="24.984" y2="3.096"/>
      <line stroke-width="0.72" x2="24.984" stroke="black" y1="0.72" x1="10.584" y2="0.72"/>
      <line stroke-width="0.72" x2="24.984" stroke="black" y1="0.72" x1="24.984" y2="5.472"/>
      <line stroke-width="0.72" x2="10.584" stroke="black" y1="5.472" x1="24.984" y2="5.472"/>
      <line stroke-width="0.72" x2="10.584" stroke="black" y1="5.472" x1="10.584" y2="0.72"/>
     </g>
    </g>
   </g>
  </g>
  <g partID="854968322">
   <g transform="translate(99.9488,26.3128)">
    <g transform="matrix(0,1,-1,0,0,0)">
     <g id="silkscreen">
      <line stroke-width="0.72" x2="1.44" stroke="black" x1="1.44" y1="1.44" y2="23.04"/>
      <line stroke-width="0.72" x2="8.64" stroke="black" x1="1.44" y1="23.04" y2="23.04"/>
      <line stroke-width="0.72" x2="8.64" stroke="black" x1="8.64" y1="23.04" y2="1.44"/>
      <line stroke-width="0.72" x2="1.44" stroke="black" x1="8.64" y1="1.44" y2="1.44"/>
      <line stroke-width="0.36" x2="3.96" stroke="black" x1="1.44" y1="3.96" y2="1.44"/>
      <!-- 120 -->
     </g>
    </g>
   </g>
  </g>
  <g id="partLabel" partID="57760">
   <g transform="translate(99.3368,173.878)">
    <g id="silkscreenLabel" font-style="normal" fill-opacity="1" fill="#000000" font-size="5" font-family="'OCRA'" font-weight="normal" stroke="none">
     <text y="3.75" x="0">MCU1</text>
    </g>
   </g>
  </g>
  <g id="partLabel" partID="854968230">
   <g transform="translate(105.738,76.5496)">
    <g id="silkscreenLabel" font-style="normal" fill-opacity="1" fill="#000000" font-size="5" font-family="'OCRA'" font-weight="normal" stroke="none">
     <text y="3.75" x="0">LED1</text>
    </g>
   </g>
  </g>
  <g id="partLabel" partID="854963500">
   <g transform="translate(8.0744,116.08)">
    <g id="silkscreenLabel" font-style="normal" fill-opacity="1" fill="#000000" font-size="5" font-family="'OCRA'" font-weight="normal" stroke="none">
     <text y="3.75" x="0">J17</text>
    </g>
   </g>
  </g>
  <g id="partLabel" partID="855123710">
   <g transform="translate(8.3024,129.568)">
    <g id="silkscreenLabel" font-style="normal" fill-opacity="1" fill="#000000" font-size="5" font-family="'OCRA'" font-weight="normal" stroke="none">
     <text y="3.75" x="0">J24</text>
    </g>
   </g>
  </g>
  <g id="partLabel" partID="854968320">
   <g transform="translate(84.7592,22.1256)">
    <g id="silkscreenLabel" font-style="normal" fill-opacity="1" fill="#000000" font-size="5" font-family="'OCRA'" font-weight="normal" stroke="none">
     <text y="3.75" x="0">S2</text>
    </g>
   </g>
  </g>
  <g id="partLabel" partID="854968260">
   <g transform="translate(113.873,26.9776)">
    <g id="silkscreenLabel" font-style="normal" fill-opacity="1" fill="#000000" font-size="5" font-family="'OCRA'" font-weight="normal" stroke="none">
     <text y="3.75" x="0">S1</text>
    </g>
   </g>
  </g>
  <g id="partLabel" partID="855074040">
   <g transform="translate(140.962,93.6464)">
    <g id="silkscreenLabel" font-style="normal" fill-opacity="1" fill="#000000" font-size="5" font-family="'OCRA'" font-weight="normal" stroke="none">
     <text y="3.75" x="0">R2</text>
    </g>
   </g>
  </g>
  <g id="partLabel" partID="854968290">
   <g transform="translate(116.841,92.652)">
    <g transform="matrix(0,1,-1,0,0,0)">
     <g id="silkscreenLabel" font-style="normal" fill-opacity="1" fill="#000000" font-size="5" font-family="'OCRA'" font-weight="normal" stroke="none">
      <text y="3.75" x="0">R1</text>
     </g>
    </g>
   </g>
  </g>
  <g id="partLabel" partID="855020840">
   <g transform="translate(28.1216,38.4792)">
    <g transform="matrix(0,-1,1,0,0,0)">
     <g id="silkscreenLabel" font-style="normal" fill-opacity="1" fill="#000000" font-size="5" font-family="'OCRA'" font-weight="normal" stroke="none">
      <text y="3.75" x="0">J19</text>
     </g>
    </g>
   </g>
  </g>
  <g id="partLabel" partID="855045050">
   <g transform="translate(149.568,130.562)">
    <g id="silkscreenLabel" font-style="normal" fill-opacity="1" fill="#000000" font-size="5" font-family="'OCRA'" font-weight="normal" stroke="none">
     <text y="3.75" x="0">J9</text>
    </g>
   </g>
  </g>
  <g id="partLabel" partID="855044490">
   <g transform="translate(133.896,130.682)">
    <g id="silkscreenLabel" font-style="normal" fill-opacity="1" fill="#000000" font-size="5" font-family="'OCRA'" font-weight="normal" stroke="none">
     <text y="3.75" x="0">J8</text>
    </g>
   </g>
  </g>
  <g id="partLabel" partID="855043930">
   <g transform="translate(121.004,130.332)">
    <g id="silkscreenLabel" font-style="normal" fill-opacity="1" fill="#000000" font-size="5" font-family="'OCRA'" font-weight="normal" stroke="none">
     <text y="3.75" x="0">J7</text>
    </g>
   </g>
  </g>
  <g id="partLabel" partID="855047850">
   <g transform="translate(105.797,130.597)">
    <g id="silkscreenLabel" font-style="normal" fill-opacity="1" fill="#000000" font-size="5" font-family="'OCRA'" font-weight="normal" stroke="none">
     <text y="3.75" x="0">J6</text>
    </g>
   </g>
  </g>
  <g id="partLabel" partID="855047290">
   <g transform="translate(91.2256,130.702)">
    <g id="silkscreenLabel" font-style="normal" fill-opacity="1" fill="#000000" font-size="5" font-family="'OCRA'" font-weight="normal" stroke="none">
     <text y="3.75" x="0">J5</text>
    </g>
   </g>
  </g>
  <g id="partLabel" partID="855046730">
   <g transform="translate(76.6032,130.186)">
    <g id="silkscreenLabel" font-style="normal" fill-opacity="1" fill="#000000" font-size="5" font-family="'OCRA'" font-weight="normal" stroke="none">
     <text y="3.75" x="0">J4</text>
    </g>
   </g>
  </g>
  <g id="partLabel" partID="855046170">
   <g transform="translate(63.0776,130.345)">
    <g id="silkscreenLabel" font-style="normal" fill-opacity="1" fill="#000000" font-size="5" font-family="'OCRA'" font-weight="normal" stroke="none">
     <text y="3.75" x="0">J3</text>
    </g>
   </g>
  </g>
  <g id="partLabel" partID="855085800">
   <g transform="translate(39.1008,29.3936)">
    <g id="silkscreenLabel" font-style="normal" fill-opacity="1" fill="#000000" font-size="5" font-family="'OCRA'" font-weight="normal" stroke="none">
     <text y="3.75" x="0">VCC1</text>
    </g>
   </g>
  </g>
  <g id="partLabel" partID="855430410">
   <g transform="translate(154.919,8.1472)">
    <g id="silkscreenLabel" font-style="normal" fill-opacity="1" fill="#000000" font-size="5" font-family="'OCRA'" font-weight="normal" stroke="none">
     <text y="3.75" x="0">J27</text>
    </g>
   </g>
  </g>
  <g id="partLabel" partID="855424940">
   <g transform="translate(129.311,50.7272)">
    <g transform="matrix(0,-1,1,0,0,0)">
     <g id="silkscreenLabel" font-style="normal" fill-opacity="1" fill="#000000" font-size="5" font-family="'OCRA'" font-weight="normal" stroke="none">
      <text y="3.75" x="0">J26</text>
     </g>
    </g>
   </g>
  </g>
  <g id="partLabel" partID="855424100">
   <g transform="translate(129.66,26.224)">
    <g transform="matrix(0,-1,1,0,0,0)">
     <g id="silkscreenLabel" font-style="normal" fill-opacity="1" fill="#000000" font-size="5" font-family="'OCRA'" font-weight="normal" stroke="none">
      <text y="3.75" x="0">J25</text>
     </g>
    </g>
   </g>
  </g>
  <g id="partLabel" partID="855461960">
   <g transform="translate(42.3488,78.3128)">
    <g id="silkscreenLabel" font-style="normal" fill-opacity="1" fill="#000000" font-size="5" font-family="'OCRA'" font-weight="normal" stroke="none">
     <text y="3.75" x="0">J16</text>
    </g>
   </g>
  </g>
  <g partID="57761">
   <g transform="translate(20.5256,147.714)">
    <g id="copper1">
     <g id="copper0">
      <circle id="connector0pin" stroke-width="2.12" r="2.088" fill="white" cx="23.976" stroke="white" cy="13.239"/>
      <circle id="connector2pin" stroke-width="2.12" r="2.088" fill="white" cx="31.184" stroke="white" cy="13.239"/>
      <circle id="connector4pin" stroke-width="2.12" r="2.088" fill="white" cx="38.384" stroke="white" cy="13.239"/>
      <circle id="connector6pin" stroke-width="2.12" r="2.088" fill="white" cx="45.583" stroke="white" cy="13.239"/>
      <circle id="connector8pin" stroke-width="2.12" r="2.088" fill="white" cx="52.784" stroke="white" cy="13.239"/>
      <circle id="connector10pin" stroke-width="2.12" r="2.088" fill="white" cx="59.983" stroke="white" cy="13.239"/>
      <circle id="connector12pin" stroke-width="2.12" r="2.088" fill="white" cx="67.183" stroke="white" cy="13.239"/>
      <circle id="connector14pin" stroke-width="2.12" r="2.088" fill="white" cx="74.384" stroke="white" cy="13.239"/>
      <circle id="connector16pin" stroke-width="2.12" r="2.088" fill="white" cx="81.583" stroke="white" cy="13.344"/>
      <circle id="connector18pin" stroke-width="2.12" r="2.088" fill="white" cx="88.784" stroke="white" cy="13.239"/>
      <circle id="connector20pin" stroke-width="2.12" r="2.088" fill="white" cx="95.983" stroke="white" cy="13.239"/>
      <circle id="connector22pin" stroke-width="2.12" r="2.088" fill="white" cx="103.184" stroke="white" cy="13.239"/>
      <circle id="connector24pin" stroke-width="2.12" r="2.088" fill="white" cx="110.384" stroke="white" cy="13.239"/>
      <circle id="connector26pin" stroke-width="2.12" r="2.088" fill="white" cx="117.583" stroke="white" cy="13.239"/>
      <circle id="connector28pin" stroke-width="2.12" r="2.088" fill="white" cx="124.784" stroke="white" cy="13.239"/>
      <circle id="connector30pin" stroke-width="2.12" r="2.088" fill="white" cx="131.983" stroke="white" cy="13.239"/>
      <circle id="connector32pin" stroke-width="2.12" r="2.088" fill="white" cx="139.151" stroke="white" cy="13.239"/>
      <circle id="connector34pin" stroke-width="2.12" r="2.088" fill="white" cx="146.378" stroke="white" cy="13.239"/>
      <circle id="connector36pin" stroke-width="2.12" r="2.088" fill="white" cx="153.603" stroke="white" cy="13.239"/>
      <circle id="connector38pin" stroke-width="2.12" r="2.088" fill="white" cx="160.784" stroke="white" cy="13.239"/>
      <circle id="connector39pin" stroke-width="2.12" r="2.088" fill="white" cx="160.784" stroke="white" cy="6.039"/>
      <circle id="connector37pin" stroke-width="2.12" r="2.088" fill="white" cx="153.603" stroke="white" cy="6.039"/>
      <circle id="connector35pin" stroke-width="2.12" r="2.088" fill="white" cx="146.378" stroke="white" cy="6.039"/>
      <circle id="connector33pin" stroke-width="2.12" r="2.088" fill="white" cx="139.151" stroke="white" cy="6.039"/>
      <circle id="connector31pin" stroke-width="2.12" r="2.088" fill="white" cx="131.983" stroke="white" cy="6.039"/>
      <circle id="connector29pin" stroke-width="2.12" r="2.088" fill="white" cx="124.784" stroke="white" cy="6.039"/>
      <circle id="connector27pin" stroke-width="2.12" r="2.088" fill="white" cx="117.583" stroke="white" cy="6.039"/>
      <circle id="connector25pin" stroke-width="2.12" r="2.088" fill="white" cx="110.384" stroke="white" cy="6.039"/>
      <circle id="connector23pin" stroke-width="2.12" r="2.088" fill="white" cx="103.184" stroke="white" cy="6.039"/>
      <circle id="connector21pin" stroke-width="2.12" r="2.088" fill="white" cx="95.983" stroke="white" cy="6.039"/>
      <circle id="connector19pin" stroke-width="2.12" r="2.088" fill="white" cx="88.776" stroke="white" cy="6.039"/>
      <circle id="connector17pin" stroke-width="2.12" r="2.088" fill="white" cx="81.583" stroke="white" cy="6.039"/>
      <circle id="connector15pin" stroke-width="2.12" r="2.088" fill="white" cx="74.384" stroke="white" cy="6.039"/>
      <circle id="connector13pin" stroke-width="2.12" r="2.088" fill="white" cx="67.184" stroke="white" cy="6.039"/>
      <circle id="connector11pin" stroke-width="2.12" r="2.088" fill="white" cx="59.983" stroke="white" cy="6.039"/>
      <circle id="connector9pin" stroke-width="2.12" r="2.088" fill="white" cx="52.784" stroke="white" cy="6.039"/>
      <circle id="connector7pin" stroke-width="2.12" r="2.088" fill="white" cx="45.583" stroke="white" cy="6.039"/>
      <circle id="connector5pin" stroke-width="2.12" r="2.088" fill="white" cx="38.384" stroke="white" cy="6.039"/>
      <circle id="connector3pin" stroke-width="2.12" r="2.088" fill="white" cx="31.184" stroke="white" cy="6.039"/>
      <circle id="connector1pin" stroke-width="2.12" r="2.088" fill="white" cx="23.983" stroke="white" cy="6.039"/>
     </g>
    </g>
   </g>
  </g>
  <g partID="855443781">
   <g transform="translate(18.4736,134.918)">
    <g id="copper1">
     <circle id="connector0pin" r="2.12599" stroke-width="2.13732" fill="white" cx="4.43465" stroke="white" cy="4.43465"/>
    </g>
   </g>
  </g>
  <g partID="855443811">
   <g transform="translate(25.6736,91.7176)">
    <g id="copper1">
     <circle id="connector0pin" r="2.12599" stroke-width="2.13732" fill="white" cx="4.43465" stroke="white" cy="4.43465"/>
    </g>
   </g>
  </g>
  <g partID="855443841">
   <g transform="translate(32.8736,91.7176)">
    <g id="copper1">
     <circle id="connector0pin" r="2.12599" stroke-width="2.13732" fill="white" cx="4.43465" stroke="white" cy="4.43465"/>
    </g>
   </g>
  </g>
  <g partID="855443871">
   <g transform="translate(40.0736,91.7176)">
    <g id="copper1">
     <circle id="connector0pin" r="2.12599" stroke-width="2.13732" fill="white" cx="4.43465" stroke="white" cy="4.43465"/>
    </g>
   </g>
  </g>
  <g partID="855448031">
   <g transform="translate(32.8736,156.518)">
    <g id="copper1">
     <circle id="connector0pin" r="2.12599" stroke-width="2.13732" fill="white" cx="4.43465" stroke="white" cy="4.43465"/>
    </g>
   </g>
  </g>
  <g partID="855448061">
   <g transform="translate(47.2736,163.718)">
    <g id="copper1">
     <circle id="connector0pin" r="2.12599" stroke-width="2.13732" fill="white" cx="4.43465" stroke="white" cy="4.43465"/>
    </g>
   </g>
  </g>
  <g partID="855448091">
   <g transform="translate(54.4736,163.718)">
    <g id="copper1">
     <circle id="connector0pin" r="2.12599" stroke-width="2.13732" fill="white" cx="4.43465" stroke="white" cy="4.43465"/>
    </g>
   </g>
  </g>
  <g partID="855448121">
   <g transform="translate(61.6736,163.718)">
    <g id="copper1">
     <circle id="connector0pin" r="2.12599" stroke-width="2.13732" fill="white" cx="4.43465" stroke="white" cy="4.43465"/>
    </g>
   </g>
  </g>
  <g partID="855472241">
   <g transform="translate(198.474,62.9184)">
    <g id="copper1">
     <circle id="connector0pin" r="2.12599" stroke-width="2.13732" fill="white" cx="4.43465" stroke="white" cy="4.43465"/>
    </g>
   </g>
  </g>
  <g partID="855449751">
   <g transform="translate(148.074,98.9176)">
    <g id="copper1">
     <circle id="connector0pin" r="2.12599" stroke-width="2.13732" fill="white" cx="4.43465" stroke="white" cy="4.43465"/>
    </g>
   </g>
  </g>
  <g partID="855449781">
   <g transform="translate(133.674,98.9176)">
    <g id="copper1">
     <circle id="connector0pin" r="2.12599" stroke-width="2.13732" fill="white" cx="4.43465" stroke="white" cy="4.43465"/>
    </g>
   </g>
  </g>
  <g partID="855449811">
   <g transform="translate(119.274,98.9176)">
    <g id="copper1">
     <circle id="connector0pin" r="2.12599" stroke-width="2.13732" fill="white" cx="4.43465" stroke="white" cy="4.43465"/>
    </g>
   </g>
  </g>
  <g partID="855449921">
   <g transform="translate(104.874,98.9176)">
    <g id="copper1">
     <circle id="connector0pin" r="2.12599" stroke-width="2.13732" fill="white" cx="4.43465" stroke="white" cy="4.43465"/>
    </g>
   </g>
  </g>
  <g partID="855449951">
   <g transform="translate(90.4736,98.9176)">
    <g id="copper1">
     <circle id="connector0pin" r="2.12599" stroke-width="2.13732" fill="white" cx="4.43465" stroke="white" cy="4.43465"/>
    </g>
   </g>
  </g>
  <g partID="855449981">
   <g transform="translate(76.0736,98.9176)">
    <g id="copper1">
     <circle id="connector0pin" r="2.12599" stroke-width="2.13732" fill="white" cx="4.43465" stroke="white" cy="4.43465"/>
    </g>
   </g>
  </g>
  <g partID="855450011">
   <g transform="translate(61.6736,98.9176)">
    <g id="copper1">
     <circle id="connector0pin" r="2.12599" stroke-width="2.13732" fill="white" cx="4.43465" stroke="white" cy="4.43465"/>
    </g>
   </g>
  </g>
  <g partID="855451881">
   <g transform="translate(61.6736,142.118)">
    <g id="copper1">
     <circle id="connector0pin" r="2.12599" stroke-width="2.13732" fill="white" cx="4.43465" stroke="white" cy="4.43465"/>
    </g>
   </g>
  </g>
  <g partID="855451911">
   <g transform="translate(68.8736,142.118)">
    <g id="copper1">
     <circle id="connector0pin" r="2.12599" stroke-width="2.13732" fill="white" cx="4.43465" stroke="white" cy="4.43465"/>
    </g>
   </g>
  </g>
  <g partID="855451941">
   <g transform="translate(76.0736,142.118)">
    <g id="copper1">
     <circle id="connector0pin" r="2.12599" stroke-width="2.13732" fill="white" cx="4.43465" stroke="white" cy="4.43465"/>
    </g>
   </g>
  </g>
  <g partID="855451971">
   <g transform="translate(76.0736,163.718)">
    <g id="copper1">
     <circle id="connector0pin" r="2.12599" stroke-width="2.13732" fill="white" cx="4.43465" stroke="white" cy="4.43465"/>
    </g>
   </g>
  </g>
  <g partID="855452001">
   <g transform="translate(83.2736,163.718)">
    <g id="copper1">
     <circle id="connector0pin" r="2.12599" stroke-width="2.13732" fill="white" cx="4.43465" stroke="white" cy="4.43465"/>
    </g>
   </g>
  </g>
  <g partID="855452031">
   <g transform="translate(90.4736,163.718)">
    <g id="copper1">
     <circle id="connector0pin" r="2.12599" stroke-width="2.13732" fill="white" cx="4.43465" stroke="white" cy="4.43465"/>
    </g>
   </g>
  </g>
  <g partID="855452061">
   <g transform="translate(97.6736,163.718)">
    <g id="copper1">
     <circle id="connector0pin" r="2.12599" stroke-width="2.13732" fill="white" cx="4.43465" stroke="white" cy="4.43465"/>
    </g>
   </g>
  </g>
  <g partID="855452091">
   <g transform="translate(104.874,163.718)">
    <g id="copper1">
     <circle id="connector0pin" r="2.12599" stroke-width="2.13732" fill="white" cx="4.43465" stroke="white" cy="4.43465"/>
    </g>
   </g>
  </g>
  <g partID="855452121">
   <g transform="translate(112.074,163.718)">
    <g id="copper1">
     <circle id="connector0pin" r="2.12599" stroke-width="2.13732" fill="white" cx="4.43465" stroke="white" cy="4.43465"/>
    </g>
   </g>
  </g>
  <g partID="855452151">
   <g transform="translate(119.274,163.718)">
    <g id="copper1">
     <circle id="connector0pin" r="2.12599" stroke-width="2.13732" fill="white" cx="4.43465" stroke="white" cy="4.43465"/>
    </g>
   </g>
  </g>
  <g partID="855452181">
   <g transform="translate(133.674,163.718)">
    <g id="copper1">
     <circle id="connector0pin" r="2.12599" stroke-width="2.13732" fill="white" cx="4.43465" stroke="white" cy="4.43465"/>
    </g>
   </g>
  </g>
  <g partID="855452371">
   <g transform="translate(90.4736,142.118)">
    <g id="copper1">
     <circle id="connector0pin" r="2.12599" stroke-width="2.13732" fill="white" cx="4.43465" stroke="white" cy="4.43465"/>
    </g>
   </g>
  </g>
  <g partID="855452401">
   <g transform="translate(97.6736,142.118)">
    <g id="copper1">
     <circle id="connector0pin" r="2.12599" stroke-width="2.13732" fill="white" cx="4.43465" stroke="white" cy="4.43465"/>
    </g>
   </g>
  </g>
  <g partID="855452431">
   <g transform="translate(112.074,142.118)">
    <g id="copper1">
     <circle id="connector0pin" r="2.12599" stroke-width="2.13732" fill="white" cx="4.43465" stroke="white" cy="4.43465"/>
    </g>
   </g>
  </g>
  <g partID="855452461">
   <g transform="translate(119.274,142.118)">
    <g id="copper1">
     <circle id="connector0pin" r="2.12599" stroke-width="2.13732" fill="white" cx="4.43465" stroke="white" cy="4.43465"/>
    </g>
   </g>
  </g>
  <g partID="855452491">
   <g transform="translate(126.474,142.118)">
    <g id="copper1">
     <circle id="connector0pin" r="2.12599" stroke-width="2.13732" fill="white" cx="4.43465" stroke="white" cy="4.43465"/>
    </g>
   </g>
  </g>
  <g partID="855452521">
   <g transform="translate(133.674,142.118)">
    <g id="copper1">
     <circle id="connector0pin" r="2.12599" stroke-width="2.13732" fill="white" cx="4.43465" stroke="white" cy="4.43465"/>
    </g>
   </g>
  </g>
  <g partID="855452551">
   <g transform="translate(140.874,163.718)">
    <g id="copper1">
     <circle id="connector0pin" r="2.12599" stroke-width="2.13732" fill="white" cx="4.43465" stroke="white" cy="4.43465"/>
    </g>
   </g>
  </g>
  <g partID="855452581">
   <g transform="translate(148.074,163.718)">
    <g id="copper1">
     <circle id="connector0pin" r="2.12599" stroke-width="2.13732" fill="white" cx="4.43465" stroke="white" cy="4.43465"/>
    </g>
   </g>
  </g>
  <g partID="855452611">
   <g transform="translate(162.474,163.718)">
    <g id="copper1">
     <circle id="connector0pin" r="2.12599" stroke-width="2.13732" fill="white" cx="4.43465" stroke="white" cy="4.43465"/>
    </g>
   </g>
  </g>
  <g partID="855452641">
   <g transform="translate(176.874,142.118)">
    <g id="copper1">
     <circle id="connector0pin" r="2.12599" stroke-width="2.13732" fill="white" cx="4.43465" stroke="white" cy="4.43465"/>
    </g>
   </g>
  </g>
  <g partID="855452671">
   <g transform="translate(148.074,142.118)">
    <g id="copper1">
     <circle id="connector0pin" r="2.12599" stroke-width="2.13732" fill="white" cx="4.43465" stroke="white" cy="4.43465"/>
    </g>
   </g>
  </g>
  <g partID="855424941">
   <g transform="translate(133.069,37.1128)">
    <g id="copper1">
     <g id="copper0">
      <circle id="connector0pin" r="2.088" stroke-width="2.16" cx="5.04" fill="white" stroke="white" cy="5.04"/>
      <circle id="connector1pin" r="2.088" stroke-width="2.16" cx="5.04" fill="white" stroke="white" cy="12.24"/>
     </g>
    </g>
   </g>
  </g>
  <g partID="855424101">
   <g transform="translate(143.149,29.1928)">
    <g transform="matrix(-1,0,0,-1,0,0)">
     <g id="copper1">
      <g id="copper0">
       <circle id="connector0pin" r="2.088" stroke-width="2.16" cx="5.04" fill="white" stroke="white" cy="5.04"/>
       <circle id="connector1pin" r="2.088" stroke-width="2.16" cx="5.04" fill="white" stroke="white" cy="12.24"/>
      </g>
     </g>
    </g>
   </g>
  </g>
  <g partID="855085801">
   <g transform="translate(53.8688,36.3928)">
    <g transform="matrix(0,-1,1,0,0,0)">
     <g id="copper1">
      <g id="copper0">
       <rect id="square" stroke-width="2.16" fill="white" width="4.176" stroke="white" y="2.952" x="2.952" height="4.176"/>
       <circle id="connector0pin" r="2.088" stroke-width="2.16" cx="5.04" fill="white" stroke="white" cy="5.04"/>
       <circle id="connector1pin" r="2.088" stroke-width="2.16" cx="5.04" fill="white" stroke="white" cy="12.24"/>
      </g>
     </g>
    </g>
   </g>
  </g>
  <g partID="855045051">
   <g transform="translate(157.549,129.993)">
    <g transform="matrix(-1,0,0,-1,0,0)">
     <g id="copper1">
      <g id="copper0">
       <circle id="connector0pin" r="2.13732" stroke-width="2.16" cx="5.04" fill="white" stroke="white" cy="5.04"/>
       <circle id="connector1pin" r="2.13732" stroke-width="2.16" cx="5.04" fill="white" stroke="white" cy="12.24"/>
       <circle id="connector2pin" r="2.13732" stroke-width="2.16" cx="5.04" fill="white" stroke="white" cy="19.44"/>
      </g>
     </g>
    </g>
   </g>
  </g>
  <g partID="855044491">
   <g transform="translate(143.149,129.993)">
    <g transform="matrix(-1,0,0,-1,0,0)">
     <g id="copper1">
      <g id="copper0">
       <circle id="connector0pin" r="2.13732" stroke-width="2.16" cx="5.04" fill="white" stroke="white" cy="5.04"/>
       <circle id="connector1pin" r="2.13732" stroke-width="2.16" cx="5.04" fill="white" stroke="white" cy="12.24"/>
       <circle id="connector2pin" r="2.13732" stroke-width="2.16" cx="5.04" fill="white" stroke="white" cy="19.44"/>
      </g>
     </g>
    </g>
   </g>
  </g>
  <g partID="855043931">
   <g transform="translate(128.749,129.993)">
    <g transform="matrix(-1,0,0,-1,0,0)">
     <g id="copper1">
      <g id="copper0">
       <circle id="connector0pin" r="2.13732" stroke-width="2.16" cx="5.04" fill="white" stroke="white" cy="5.04"/>
       <circle id="connector1pin" r="2.13732" stroke-width="2.16" cx="5.04" fill="white" stroke="white" cy="12.24"/>
       <circle id="connector2pin" r="2.13732" stroke-width="2.16" cx="5.04" fill="white" stroke="white" cy="19.44"/>
      </g>
     </g>
    </g>
   </g>
  </g>
  <g partID="855047851">
   <g transform="translate(114.349,129.993)">
    <g transform="matrix(-1,0,0,-1,0,0)">
     <g id="copper1">
      <g id="copper0">
       <circle id="connector0pin" r="2.13732" stroke-width="2.16" cx="5.04" fill="white" stroke="white" cy="5.04"/>
       <circle id="connector1pin" r="2.13732" stroke-width="2.16" cx="5.04" fill="white" stroke="white" cy="12.24"/>
       <circle id="connector2pin" r="2.13732" stroke-width="2.16" cx="5.04" fill="white" stroke="white" cy="19.44"/>
      </g>
     </g>
    </g>
   </g>
  </g>
  <g partID="855047291">
   <g transform="translate(99.9488,129.993)">
    <g transform="matrix(-1,0,0,-1,0,0)">
     <g id="copper1">
      <g id="copper0">
       <circle id="connector0pin" r="2.13732" stroke-width="2.16" cx="5.04" fill="white" stroke="white" cy="5.04"/>
       <circle id="connector1pin" r="2.13732" stroke-width="2.16" cx="5.04" fill="white" stroke="white" cy="12.24"/>
       <circle id="connector2pin" r="2.13732" stroke-width="2.16" cx="5.04" fill="white" stroke="white" cy="19.44"/>
      </g>
     </g>
    </g>
   </g>
  </g>
  <g partID="855046731">
   <g transform="translate(85.5488,129.993)">
    <g transform="matrix(-1,0,0,-1,0,0)">
     <g id="copper1">
      <g id="copper0">
       <circle id="connector0pin" r="2.13732" stroke-width="2.16" cx="5.04" fill="white" stroke="white" cy="5.04"/>
       <circle id="connector1pin" r="2.13732" stroke-width="2.16" cx="5.04" fill="white" stroke="white" cy="12.24"/>
       <circle id="connector2pin" r="2.13732" stroke-width="2.16" cx="5.04" fill="white" stroke="white" cy="19.44"/>
      </g>
     </g>
    </g>
   </g>
  </g>
  <g partID="855046171">
   <g transform="translate(71.1488,129.993)">
    <g transform="matrix(-1,0,0,-1,0,0)">
     <g id="copper1">
      <g id="copper0">
       <circle id="connector0pin" r="2.13732" stroke-width="2.16" cx="5.04" fill="white" stroke="white" cy="5.04"/>
       <circle id="connector1pin" r="2.13732" stroke-width="2.16" cx="5.04" fill="white" stroke="white" cy="12.24"/>
       <circle id="connector2pin" r="2.13732" stroke-width="2.16" cx="5.04" fill="white" stroke="white" cy="19.44"/>
      </g>
     </g>
    </g>
   </g>
  </g>
  <g partID="855430411">
   <g transform="translate(154.618,11.9216)">
    <g id="copper1">
     <g id="copper0">
      <circle id="connector0pin" r="2.13732" stroke-width="2.16" cx="5.04" fill="white" stroke="white" cy="5.04"/>
      <circle id="connector1pin" r="2.13732" stroke-width="2.16" cx="5.04" fill="white" stroke="white" cy="12.24"/>
      <circle id="connector2pin" r="2.13732" stroke-width="2.16" cx="5.04" fill="white" stroke="white" cy="19.44"/>
      <circle id="connector3pin" r="2.13732" stroke-width="2.16" cx="5.04" fill="white" stroke="white" cy="26.64"/>
      <circle id="connector4pin" r="2.13732" stroke-width="2.16" cx="5.04" fill="white" stroke="white" cy="33.84"/>
      <circle id="connector5pin" r="2.13732" stroke-width="2.16" cx="5.04" fill="white" stroke="white" cy="41.04"/>
      <circle id="connector6pin" r="2.13732" stroke-width="2.16" cx="5.04" fill="white" stroke="white" cy="48.24"/>
      <circle id="connector7pin" r="2.13732" stroke-width="2.16" cx="5.04" fill="white" stroke="white" cy="55.44"/>
      <circle id="connector8pin" r="2.13732" stroke-width="2.16" cx="5.04" fill="white" stroke="white" cy="62.64"/>
      <circle id="connector9pin" r="2.13732" stroke-width="2.16" cx="5.04" fill="white" stroke="white" cy="69.84"/>
      <circle id="connector10pin" r="2.13732" stroke-width="2.16" cx="5.04" fill="white" stroke="white" cy="77.04"/>
     </g>
    </g>
   </g>
  </g>
  <g partID="855020841">
   <g transform="translate(17.8688,40.7128)">
    <g id="copper1">
     <g id="copper0">
      <circle id="connector0pin" r="2.13732" stroke-width="2.16" cx="5.04" fill="white" stroke="white" cy="5.04"/>
      <circle id="connector1pin" r="2.13732" stroke-width="2.16" cx="5.04" fill="white" stroke="white" cy="12.24"/>
      <circle id="connector2pin" r="2.13732" stroke-width="2.16" cx="5.04" fill="white" stroke="white" cy="19.44"/>
      <circle id="connector3pin" r="2.13732" stroke-width="2.16" cx="5.04" fill="white" stroke="white" cy="26.64"/>
      <circle id="connector4pin" r="2.13732" stroke-width="2.16" cx="5.04" fill="white" stroke="white" cy="33.84"/>
      <circle id="connector5pin" r="2.13732" stroke-width="2.16" cx="5.04" fill="white" stroke="white" cy="41.04"/>
      <circle id="connector6pin" r="2.13732" stroke-width="2.16" cx="5.04" fill="white" stroke="white" cy="48.24"/>
     </g>
    </g>
   </g>
  </g>
  <g partID="855019211">
   <g transform="translate(89.8688,40.7128)">
    <g id="copper1">
     <g id="copper0">
      <circle id="connector0pin" r="2.13732" stroke-width="2.16" cx="5.04" fill="white" stroke="white" cy="5.04"/>
      <circle id="connector1pin" r="2.13732" stroke-width="2.16" cx="5.04" fill="white" stroke="white" cy="12.24"/>
      <circle id="connector2pin" r="2.13732" stroke-width="2.16" cx="5.04" fill="white" stroke="white" cy="19.44"/>
      <circle id="connector3pin" r="2.13732" stroke-width="2.16" cx="5.04" fill="white" stroke="white" cy="26.64"/>
      <circle id="connector4pin" r="2.13732" stroke-width="2.16" cx="5.04" fill="white" stroke="white" cy="33.84"/>
      <circle id="connector5pin" r="2.13732" stroke-width="2.16" cx="5.04" fill="white" stroke="white" cy="41.04"/>
      <circle id="connector6pin" r="2.13732" stroke-width="2.16" cx="5.04" fill="white" stroke="white" cy="48.24"/>
     </g>
    </g>
   </g>
  </g>
  <g partID="855123711">
   <g transform="translate(17.8688,137.193)">
    <g transform="matrix(0,-1,1,0,0,0)">
     <g id="copper1">
      <g id="copper0">
       <circle id="connector0pin" r="2.13732" stroke-width="2.16" cx="5.04" fill="white" stroke="white" cy="5.04"/>
       <circle id="connector1pin" r="2.13732" stroke-width="2.16" cx="5.04" fill="white" stroke="white" cy="12.24"/>
       <circle id="connector2pin" r="2.13732" stroke-width="2.16" cx="5.04" fill="white" stroke="white" cy="19.44"/>
       <circle id="connector3pin" r="2.13732" stroke-width="2.16" cx="5.04" fill="white" stroke="white" cy="26.64"/>
       <circle id="connector4pin" r="2.13732" stroke-width="2.16" cx="5.04" fill="white" stroke="white" cy="33.84"/>
      </g>
     </g>
    </g>
   </g>
  </g>
  <g partID="854963501">
   <g transform="translate(17.8688,122.793)">
    <g transform="matrix(0,-1,1,0,0,0)">
     <g id="copper1">
      <g id="copper0">
       <circle id="connector0pin" r="2.13732" stroke-width="2.16" cx="5.04" fill="white" stroke="white" cy="5.04"/>
       <circle id="connector1pin" r="2.13732" stroke-width="2.16" cx="5.04" fill="white" stroke="white" cy="12.24"/>
       <circle id="connector2pin" r="2.13732" stroke-width="2.16" cx="5.04" fill="white" stroke="white" cy="19.44"/>
       <circle id="connector3pin" r="2.13732" stroke-width="2.16" cx="5.04" fill="white" stroke="white" cy="26.64"/>
       <circle id="connector4pin" r="2.13732" stroke-width="2.16" cx="5.04" fill="white" stroke="white" cy="33.84"/>
      </g>
     </g>
    </g>
   </g>
  </g>
  <g partID="855461961">
   <g transform="translate(17.8688,108.393)">
    <g transform="matrix(0,-1,1,0,0,0)">
     <g id="copper1">
      <g id="copper0">
       <circle id="connector0pin" r="1.70078" stroke-width="1.85386" cx="5.04" fill="white" stroke="white" cy="5.04"/>
       <circle id="connector1pin" r="1.70078" stroke-width="1.85386" cx="5.04" fill="white" stroke="white" cy="12.24"/>
       <circle id="connector2pin" r="1.70078" stroke-width="1.85386" cx="5.04" fill="white" stroke="white" cy="19.44"/>
       <circle id="connector3pin" r="1.70078" stroke-width="1.85386" cx="5.04" fill="white" stroke="white" cy="26.64"/>
       <circle id="connector4pin" r="1.70078" stroke-width="1.85386" cx="5.04" fill="white" stroke="white" cy="33.84"/>
      </g>
     </g>
    </g>
   </g>
  </g>
  <g partID="854968231">
   <g transform="translate(105.762,97.7408)">
    <g transform="matrix(0,-1,1,0,0,0)">
     <g id="copper1">
      <circle id="connector1pad" r="1.7008" stroke-width="1.85384" cx="8.7876" fill="white" stroke="white" cy="10.6336"/>
      <rect stroke-width="1.85384" fill="white" width="3.4016" stroke="white" y="8.9328" x="7.0868" height="3.4016"/>
      <circle id="connector0pad" r="1.7008" stroke-width="1.85384" cx="8.7876" fill="white" stroke="white" cy="3.5464"/>
     </g>
    </g>
   </g>
  </g>
  <g partID="854968261">
   <g transform="translate(126.555,32.1065)">
    <g transform="matrix(0,1,-1,0,0,0)">
     <g id="copper1">
      <g id="copper0">
       <circle id="connector0pad" r="1.98" stroke-width="2.16" cx="20.8462" fill="white" stroke="white" cy="15.6024"/>
       <circle id="connector1pad" r="1.98" stroke-width="2.16" cx="2.42064" fill="white" stroke="white" cy="15.6024"/>
       <circle id="connector2pad" r="1.98" stroke-width="2.16" cx="20.8462" fill="white" stroke="white" cy="2.84616"/>
       <circle id="connector3pad" r="1.98" stroke-width="2.16" cx="2.42064" fill="white" stroke="white" cy="2.84616"/>
      </g>
     </g>
    </g>
   </g>
  </g>
  <g partID="855074041">
   <g transform="translate(148.405,100.653)">
    <g transform="matrix(0,1,-1,0,0,0)">
     <g id="copper1">
      <!-- <rect width="55" x="10" y="15.5" fill="none" height="55" stroke="rgb(255, 191, 0)" stroke-width="20" />  -->
      <circle id="connector0pin" r="1.98" stroke-width="2.16" fill="white" cx="2.7" stroke="white" cy="3.096"/>
      <circle id="connector1pin" r="1.98" stroke-width="2.16" fill="white" cx="31.5" stroke="white" cy="3.096"/>
     </g>
    </g>
   </g>
  </g>
  <g partID="854968291">
   <g transform="translate(119.605,100.653)">
    <g transform="matrix(0,1,-1,0,0,0)">
     <g id="copper1">
      <!-- <rect width="55" x="10" y="15.5" fill="none" height="55" stroke="rgb(255, 191, 0)" stroke-width="20" />  -->
      <circle id="connector0pin" r="1.98" stroke-width="2.16" fill="white" cx="2.7" stroke="white" cy="3.096"/>
      <circle id="connector1pin" r="1.98" stroke-width="2.16" fill="white" cx="31.5" stroke="white" cy="3.096"/>
     </g>
    </g>
   </g>
  </g>
  <g partID="854968321">
   <g transform="translate(99.9488,26.3128)">
    <g transform="matrix(0,1,-1,0,0,0)">
     <g id="copper1">
      <g id="copper0">
       <rect id="square" stroke-width="2.16" fill="white" width="4.176" stroke="white" y="2.952" x="2.952" height="4.176"/>
       <circle id="connector0pin" r="2.088" stroke-width="2.16" cx="5.04" fill="white" stroke="white" cy="5.04"/>
       <circle id="connector1pin" r="2.088" stroke-width="2.16" cx="5.04" fill="white" stroke="white" cy="12.24"/>
       <circle id="connector2pin" r="2.088" stroke-width="2.16" cx="5.04" fill="white" stroke="white" cy="19.44"/>
      </g>
     </g>
    </g>
   </g>
  </g>
 </g>
</svg>
