<?xml version='1.0' encoding='UTF-8' standalone='no'?>
<!-- Created with Fritzing (http://www.fritzing.org/) -->
<svg xmlns="http://www.w3.org/2000/svg" xmlns:svg="http://www.w3.org/2000/svg" viewBox="0 0 208.795 184.624" width="2.89993in" version="1.2"  y="0in" x="0in" baseProfile="tiny" height="2.56422in">
 <g transform="matrix(-1, 0, 0, 1, 208.795, 0)">
  <g partID="57662">
   <g id="silkscreen0">
    <rect stroke-width="0.576" fill="none" width="208.219" stroke="black" y="0.288" x="0.288" height="184.048"/>
   </g>
  </g>
  <g partID="57660">
   <g id="board">
    <rect id="boardoutline" stroke-width="0.5" fill-opacity="0.5" fill="none" width="208.219" stroke="black" y="0.288" x="0.288" height="184.048"/>
   </g>
  </g>
  <g partID="57662">
   <g id="silkscreen0">
    <rect stroke-width="0.576" fill="none" width="208.219" stroke="black" y="0.288" x="0.288" height="184.048"/>
   </g>
  </g>
  <g partID="57760">
   <g transform="translate(20.5256,147.714)">
    <g id="copper0">
     <circle id="connector0pin" stroke-width="2.12" r="2.088" fill="white" cx="23.976" stroke="white" cy="13.239"/>
     <circle id="connector2pin" stroke-width="2.12" r="2.088" fill="white" cx="31.184" stroke="white" cy="13.239"/>
     <circle id="connector4pin" stroke-width="2.12" r="2.088" fill="white" cx="38.384" stroke="white" cy="13.239"/>
     <circle id="connector6pin" stroke-width="2.12" r="2.088" fill="white" cx="45.583" stroke="white" cy="13.239"/>
     <circle id="connector8pin" stroke-width="2.12" r="2.088" fill="white" cx="52.784" stroke="white" cy="13.239"/>
     <circle id="connector10pin" stroke-width="2.12" r="2.088" fill="white" cx="59.983" stroke="white" cy="13.239"/>
     <circle id="connector12pin" stroke-width="2.12" r="2.088" fill="white" cx="67.183" stroke="white" cy="13.239"/>
     <circle id="connector14pin" stroke-width="2.12" r="2.088" fill="white" cx="74.384" stroke="white" cy="13.239"/>
     <circle id="connector16pin" stroke-width="2.12" r="2.088" fill="white" cx="81.583" stroke="white" cy="13.344"/>
     <circle id="connector18pin" stroke-width="2.12" r="2.088" fill="white" cx="88.784" stroke="white" cy="13.239"/>
     <circle id="connector20pin" stroke-width="2.12" r="2.088" fill="white" cx="95.983" stroke="white" cy="13.239"/>
     <circle id="connector22pin" stroke-width="2.12" r="2.088" fill="white" cx="103.184" stroke="white" cy="13.239"/>
     <circle id="connector24pin" stroke-width="2.12" r="2.088" fill="white" cx="110.384" stroke="white" cy="13.239"/>
     <circle id="connector26pin" stroke-width="2.12" r="2.088" fill="white" cx="117.583" stroke="white" cy="13.239"/>
     <circle id="connector28pin" stroke-width="2.12" r="2.088" fill="white" cx="124.784" stroke="white" cy="13.239"/>
     <circle id="connector30pin" stroke-width="2.12" r="2.088" fill="white" cx="131.983" stroke="white" cy="13.239"/>
     <circle id="connector32pin" stroke-width="2.12" r="2.088" fill="white" cx="139.151" stroke="white" cy="13.239"/>
     <circle id="connector34pin" stroke-width="2.12" r="2.088" fill="white" cx="146.378" stroke="white" cy="13.239"/>
     <circle id="connector36pin" stroke-width="2.12" r="2.088" fill="white" cx="153.603" stroke="white" cy="13.239"/>
     <circle id="connector38pin" stroke-width="2.12" r="2.088" fill="white" cx="160.784" stroke="white" cy="13.239"/>
     <circle id="connector39pin" stroke-width="2.12" r="2.088" fill="white" cx="160.784" stroke="white" cy="6.039"/>
     <circle id="connector37pin" stroke-width="2.12" r="2.088" fill="white" cx="153.603" stroke="white" cy="6.039"/>
     <circle id="connector35pin" stroke-width="2.12" r="2.088" fill="white" cx="146.378" stroke="white" cy="6.039"/>
     <circle id="connector33pin" stroke-width="2.12" r="2.088" fill="white" cx="139.151" stroke="white" cy="6.039"/>
     <circle id="connector31pin" stroke-width="2.12" r="2.088" fill="white" cx="131.983" stroke="white" cy="6.039"/>
     <circle id="connector29pin" stroke-width="2.12" r="2.088" fill="white" cx="124.784" stroke="white" cy="6.039"/>
     <circle id="connector27pin" stroke-width="2.12" r="2.088" fill="white" cx="117.583" stroke="white" cy="6.039"/>
     <circle id="connector25pin" stroke-width="2.12" r="2.088" fill="white" cx="110.384" stroke="white" cy="6.039"/>
     <circle id="connector23pin" stroke-width="2.12" r="2.088" fill="white" cx="103.184" stroke="white" cy="6.039"/>
     <circle id="connector21pin" stroke-width="2.12" r="2.088" fill="white" cx="95.983" stroke="white" cy="6.039"/>
     <circle id="connector19pin" stroke-width="2.12" r="2.088" fill="white" cx="88.776" stroke="white" cy="6.039"/>
     <circle id="connector17pin" stroke-width="2.12" r="2.088" fill="white" cx="81.583" stroke="white" cy="6.039"/>
     <circle id="connector15pin" stroke-width="2.12" r="2.088" fill="white" cx="74.384" stroke="white" cy="6.039"/>
     <circle id="connector13pin" stroke-width="2.12" r="2.088" fill="white" cx="67.184" stroke="white" cy="6.039"/>
     <circle id="connector11pin" stroke-width="2.12" r="2.088" fill="white" cx="59.983" stroke="white" cy="6.039"/>
     <circle id="connector9pin" stroke-width="2.12" r="2.088" fill="white" cx="52.784" stroke="white" cy="6.039"/>
     <circle id="connector7pin" stroke-width="2.12" r="2.088" fill="white" cx="45.583" stroke="white" cy="6.039"/>
     <circle id="connector5pin" stroke-width="2.12" r="2.088" fill="white" cx="38.384" stroke="white" cy="6.039"/>
     <circle id="connector3pin" stroke-width="2.12" r="2.088" fill="white" cx="31.184" stroke="white" cy="6.039"/>
     <circle id="connector1pin" stroke-width="2.12" r="2.088" fill="white" cx="23.983" stroke="white" cy="6.039"/>
    </g>
   </g>
  </g>
  <g partID="855443780">
   <g transform="translate(18.4736,134.918)">
    <g id="copper0">
     <circle id="connector0pin" r="2.12599" stroke-width="2.13732" fill="white" cx="4.43465" stroke="white" cy="4.43465"/>
    </g>
   </g>
  </g>
  <g partID="855443810">
   <g transform="translate(25.6736,91.7176)">
    <g id="copper0">
     <circle id="connector0pin" r="2.12599" stroke-width="2.13732" fill="white" cx="4.43465" stroke="white" cy="4.43465"/>
    </g>
   </g>
  </g>
  <g partID="855443840">
   <g transform="translate(32.8736,91.7176)">
    <g id="copper0">
     <circle id="connector0pin" r="2.12599" stroke-width="2.13732" fill="white" cx="4.43465" stroke="white" cy="4.43465"/>
    </g>
   </g>
  </g>
  <g partID="855443870">
   <g transform="translate(40.0736,91.7176)">
    <g id="copper0">
     <circle id="connector0pin" r="2.12599" stroke-width="2.13732" fill="white" cx="4.43465" stroke="white" cy="4.43465"/>
    </g>
   </g>
  </g>
  <g partID="855448030">
   <g transform="translate(32.8736,156.518)">
    <g id="copper0">
     <circle id="connector0pin" r="2.12599" stroke-width="2.13732" fill="white" cx="4.43465" stroke="white" cy="4.43465"/>
    </g>
   </g>
  </g>
  <g partID="855448060">
   <g transform="translate(47.2736,163.718)">
    <g id="copper0">
     <circle id="connector0pin" r="2.12599" stroke-width="2.13732" fill="white" cx="4.43465" stroke="white" cy="4.43465"/>
    </g>
   </g>
  </g>
  <g partID="855448090">
   <g transform="translate(54.4736,163.718)">
    <g id="copper0">
     <circle id="connector0pin" r="2.12599" stroke-width="2.13732" fill="white" cx="4.43465" stroke="white" cy="4.43465"/>
    </g>
   </g>
  </g>
  <g partID="855448120">
   <g transform="translate(61.6736,163.718)">
    <g id="copper0">
     <circle id="connector0pin" r="2.12599" stroke-width="2.13732" fill="white" cx="4.43465" stroke="white" cy="4.43465"/>
    </g>
   </g>
  </g>
  <g partID="855472240">
   <g transform="translate(198.474,62.9184)">
    <g id="copper0">
     <circle id="connector0pin" r="2.12599" stroke-width="2.13732" fill="white" cx="4.43465" stroke="white" cy="4.43465"/>
    </g>
   </g>
  </g>
  <g partID="855449750">
   <g transform="translate(148.074,98.9176)">
    <g id="copper0">
     <circle id="connector0pin" r="2.12599" stroke-width="2.13732" fill="white" cx="4.43465" stroke="white" cy="4.43465"/>
    </g>
   </g>
  </g>
  <g partID="855449780">
   <g transform="translate(133.674,98.9176)">
    <g id="copper0">
     <circle id="connector0pin" r="2.12599" stroke-width="2.13732" fill="white" cx="4.43465" stroke="white" cy="4.43465"/>
    </g>
   </g>
  </g>
  <g partID="855449810">
   <g transform="translate(119.274,98.9176)">
    <g id="copper0">
     <circle id="connector0pin" r="2.12599" stroke-width="2.13732" fill="white" cx="4.43465" stroke="white" cy="4.43465"/>
    </g>
   </g>
  </g>
  <g partID="855449920">
   <g transform="translate(104.874,98.9176)">
    <g id="copper0">
     <circle id="connector0pin" r="2.12599" stroke-width="2.13732" fill="white" cx="4.43465" stroke="white" cy="4.43465"/>
    </g>
   </g>
  </g>
  <g partID="855449950">
   <g transform="translate(90.4736,98.9176)">
    <g id="copper0">
     <circle id="connector0pin" r="2.12599" stroke-width="2.13732" fill="white" cx="4.43465" stroke="white" cy="4.43465"/>
    </g>
   </g>
  </g>
  <g partID="855449980">
   <g transform="translate(76.0736,98.9176)">
    <g id="copper0">
     <circle id="connector0pin" r="2.12599" stroke-width="2.13732" fill="white" cx="4.43465" stroke="white" cy="4.43465"/>
    </g>
   </g>
  </g>
  <g partID="855450010">
   <g transform="translate(61.6736,98.9176)">
    <g id="copper0">
     <circle id="connector0pin" r="2.12599" stroke-width="2.13732" fill="white" cx="4.43465" stroke="white" cy="4.43465"/>
    </g>
   </g>
  </g>
  <g partID="855451880">
   <g transform="translate(61.6736,142.118)">
    <g id="copper0">
     <circle id="connector0pin" r="2.12599" stroke-width="2.13732" fill="white" cx="4.43465" stroke="white" cy="4.43465"/>
    </g>
   </g>
  </g>
  <g partID="855451910">
   <g transform="translate(68.8736,142.118)">
    <g id="copper0">
     <circle id="connector0pin" r="2.12599" stroke-width="2.13732" fill="white" cx="4.43465" stroke="white" cy="4.43465"/>
    </g>
   </g>
  </g>
  <g partID="855451940">
   <g transform="translate(76.0736,142.118)">
    <g id="copper0">
     <circle id="connector0pin" r="2.12599" stroke-width="2.13732" fill="white" cx="4.43465" stroke="white" cy="4.43465"/>
    </g>
   </g>
  </g>
  <g partID="855451970">
   <g transform="translate(76.0736,163.718)">
    <g id="copper0">
     <circle id="connector0pin" r="2.12599" stroke-width="2.13732" fill="white" cx="4.43465" stroke="white" cy="4.43465"/>
    </g>
   </g>
  </g>
  <g partID="855452000">
   <g transform="translate(83.2736,163.718)">
    <g id="copper0">
     <circle id="connector0pin" r="2.12599" stroke-width="2.13732" fill="white" cx="4.43465" stroke="white" cy="4.43465"/>
    </g>
   </g>
  </g>
  <g partID="855452030">
   <g transform="translate(90.4736,163.718)">
    <g id="copper0">
     <circle id="connector0pin" r="2.12599" stroke-width="2.13732" fill="white" cx="4.43465" stroke="white" cy="4.43465"/>
    </g>
   </g>
  </g>
  <g partID="855452060">
   <g transform="translate(97.6736,163.718)">
    <g id="copper0">
     <circle id="connector0pin" r="2.12599" stroke-width="2.13732" fill="white" cx="4.43465" stroke="white" cy="4.43465"/>
    </g>
   </g>
  </g>
  <g partID="855452090">
   <g transform="translate(104.874,163.718)">
    <g id="copper0">
     <circle id="connector0pin" r="2.12599" stroke-width="2.13732" fill="white" cx="4.43465" stroke="white" cy="4.43465"/>
    </g>
   </g>
  </g>
  <g partID="855452120">
   <g transform="translate(112.074,163.718)">
    <g id="copper0">
     <circle id="connector0pin" r="2.12599" stroke-width="2.13732" fill="white" cx="4.43465" stroke="white" cy="4.43465"/>
    </g>
   </g>
  </g>
  <g partID="855452150">
   <g transform="translate(119.274,163.718)">
    <g id="copper0">
     <circle id="connector0pin" r="2.12599" stroke-width="2.13732" fill="white" cx="4.43465" stroke="white" cy="4.43465"/>
    </g>
   </g>
  </g>
  <g partID="855452180">
   <g transform="translate(133.674,163.718)">
    <g id="copper0">
     <circle id="connector0pin" r="2.12599" stroke-width="2.13732" fill="white" cx="4.43465" stroke="white" cy="4.43465"/>
    </g>
   </g>
  </g>
  <g partID="855452370">
   <g transform="translate(90.4736,142.118)">
    <g id="copper0">
     <circle id="connector0pin" r="2.12599" stroke-width="2.13732" fill="white" cx="4.43465" stroke="white" cy="4.43465"/>
    </g>
   </g>
  </g>
  <g partID="855452400">
   <g transform="translate(97.6736,142.118)">
    <g id="copper0">
     <circle id="connector0pin" r="2.12599" stroke-width="2.13732" fill="white" cx="4.43465" stroke="white" cy="4.43465"/>
    </g>
   </g>
  </g>
  <g partID="855452430">
   <g transform="translate(112.074,142.118)">
    <g id="copper0">
     <circle id="connector0pin" r="2.12599" stroke-width="2.13732" fill="white" cx="4.43465" stroke="white" cy="4.43465"/>
    </g>
   </g>
  </g>
  <g partID="855452460">
   <g transform="translate(119.274,142.118)">
    <g id="copper0">
     <circle id="connector0pin" r="2.12599" stroke-width="2.13732" fill="white" cx="4.43465" stroke="white" cy="4.43465"/>
    </g>
   </g>
  </g>
  <g partID="855452490">
   <g transform="translate(126.474,142.118)">
    <g id="copper0">
     <circle id="connector0pin" r="2.12599" stroke-width="2.13732" fill="white" cx="4.43465" stroke="white" cy="4.43465"/>
    </g>
   </g>
  </g>
  <g partID="855452520">
   <g transform="translate(133.674,142.118)">
    <g id="copper0">
     <circle id="connector0pin" r="2.12599" stroke-width="2.13732" fill="white" cx="4.43465" stroke="white" cy="4.43465"/>
    </g>
   </g>
  </g>
  <g partID="855452550">
   <g transform="translate(140.874,163.718)">
    <g id="copper0">
     <circle id="connector0pin" r="2.12599" stroke-width="2.13732" fill="white" cx="4.43465" stroke="white" cy="4.43465"/>
    </g>
   </g>
  </g>
  <g partID="855452580">
   <g transform="translate(148.074,163.718)">
    <g id="copper0">
     <circle id="connector0pin" r="2.12599" stroke-width="2.13732" fill="white" cx="4.43465" stroke="white" cy="4.43465"/>
    </g>
   </g>
  </g>
  <g partID="855452610">
   <g transform="translate(162.474,163.718)">
    <g id="copper0">
     <circle id="connector0pin" r="2.12599" stroke-width="2.13732" fill="white" cx="4.43465" stroke="white" cy="4.43465"/>
    </g>
   </g>
  </g>
  <g partID="855452640">
   <g transform="translate(176.874,142.118)">
    <g id="copper0">
     <circle id="connector0pin" r="2.12599" stroke-width="2.13732" fill="white" cx="4.43465" stroke="white" cy="4.43465"/>
    </g>
   </g>
  </g>
  <g partID="855452670">
   <g transform="translate(148.074,142.118)">
    <g id="copper0">
     <circle id="connector0pin" r="2.12599" stroke-width="2.13732" fill="white" cx="4.43465" stroke="white" cy="4.43465"/>
    </g>
   </g>
  </g>
  <g partID="855424940">
   <g transform="translate(133.069,37.1128)">
    <g id="copper0">
     <circle id="connector0pin" r="2.088" stroke-width="2.16" cx="5.04" fill="white" stroke="white" cy="5.04"/>
     <circle id="connector1pin" r="2.088" stroke-width="2.16" cx="5.04" fill="white" stroke="white" cy="12.24"/>
    </g>
   </g>
  </g>
  <g partID="855424100">
   <g transform="translate(143.149,29.1928)">
    <g transform="matrix(-1,0,0,-1,0,0)">
     <g id="copper0">
      <circle id="connector0pin" r="2.088" stroke-width="2.16" cx="5.04" fill="white" stroke="white" cy="5.04"/>
      <circle id="connector1pin" r="2.088" stroke-width="2.16" cx="5.04" fill="white" stroke="white" cy="12.24"/>
     </g>
    </g>
   </g>
  </g>
  <g partID="855085800">
   <g transform="translate(53.8688,36.3928)">
    <g transform="matrix(0,-1,1,0,0,0)">
     <g id="copper0">
      <rect id="square" stroke-width="2.16" fill="white" width="4.176" stroke="white" y="2.952" x="2.952" height="4.176"/>
      <circle id="connector0pin" r="2.088" stroke-width="2.16" cx="5.04" fill="white" stroke="white" cy="5.04"/>
      <circle id="connector1pin" r="2.088" stroke-width="2.16" cx="5.04" fill="white" stroke="white" cy="12.24"/>
     </g>
    </g>
   </g>
  </g>
  <g partID="855045050">
   <g transform="translate(157.549,129.993)">
    <g transform="matrix(-1,0,0,-1,0,0)">
     <g id="copper0">
      <circle id="connector0pin" r="2.13732" stroke-width="2.16" cx="5.04" fill="white" stroke="white" cy="5.04"/>
      <circle id="connector1pin" r="2.13732" stroke-width="2.16" cx="5.04" fill="white" stroke="white" cy="12.24"/>
      <circle id="connector2pin" r="2.13732" stroke-width="2.16" cx="5.04" fill="white" stroke="white" cy="19.44"/>
     </g>
    </g>
   </g>
  </g>
  <g partID="855044490">
   <g transform="translate(143.149,129.993)">
    <g transform="matrix(-1,0,0,-1,0,0)">
     <g id="copper0">
      <circle id="connector0pin" r="2.13732" stroke-width="2.16" cx="5.04" fill="white" stroke="white" cy="5.04"/>
      <circle id="connector1pin" r="2.13732" stroke-width="2.16" cx="5.04" fill="white" stroke="white" cy="12.24"/>
      <circle id="connector2pin" r="2.13732" stroke-width="2.16" cx="5.04" fill="white" stroke="white" cy="19.44"/>
     </g>
    </g>
   </g>
  </g>
  <g partID="855043930">
   <g transform="translate(128.749,129.993)">
    <g transform="matrix(-1,0,0,-1,0,0)">
     <g id="copper0">
      <circle id="connector0pin" r="2.13732" stroke-width="2.16" cx="5.04" fill="white" stroke="white" cy="5.04"/>
      <circle id="connector1pin" r="2.13732" stroke-width="2.16" cx="5.04" fill="white" stroke="white" cy="12.24"/>
      <circle id="connector2pin" r="2.13732" stroke-width="2.16" cx="5.04" fill="white" stroke="white" cy="19.44"/>
     </g>
    </g>
   </g>
  </g>
  <g partID="855047850">
   <g transform="translate(114.349,129.993)">
    <g transform="matrix(-1,0,0,-1,0,0)">
     <g id="copper0">
      <circle id="connector0pin" r="2.13732" stroke-width="2.16" cx="5.04" fill="white" stroke="white" cy="5.04"/>
      <circle id="connector1pin" r="2.13732" stroke-width="2.16" cx="5.04" fill="white" stroke="white" cy="12.24"/>
      <circle id="connector2pin" r="2.13732" stroke-width="2.16" cx="5.04" fill="white" stroke="white" cy="19.44"/>
     </g>
    </g>
   </g>
  </g>
  <g partID="855047290">
   <g transform="translate(99.9488,129.993)">
    <g transform="matrix(-1,0,0,-1,0,0)">
     <g id="copper0">
      <circle id="connector0pin" r="2.13732" stroke-width="2.16" cx="5.04" fill="white" stroke="white" cy="5.04"/>
      <circle id="connector1pin" r="2.13732" stroke-width="2.16" cx="5.04" fill="white" stroke="white" cy="12.24"/>
      <circle id="connector2pin" r="2.13732" stroke-width="2.16" cx="5.04" fill="white" stroke="white" cy="19.44"/>
     </g>
    </g>
   </g>
  </g>
  <g partID="855046730">
   <g transform="translate(85.5488,129.993)">
    <g transform="matrix(-1,0,0,-1,0,0)">
     <g id="copper0">
      <circle id="connector0pin" r="2.13732" stroke-width="2.16" cx="5.04" fill="white" stroke="white" cy="5.04"/>
      <circle id="connector1pin" r="2.13732" stroke-width="2.16" cx="5.04" fill="white" stroke="white" cy="12.24"/>
      <circle id="connector2pin" r="2.13732" stroke-width="2.16" cx="5.04" fill="white" stroke="white" cy="19.44"/>
     </g>
    </g>
   </g>
  </g>
  <g partID="855046170">
   <g transform="translate(71.1488,129.993)">
    <g transform="matrix(-1,0,0,-1,0,0)">
     <g id="copper0">
      <circle id="connector0pin" r="2.13732" stroke-width="2.16" cx="5.04" fill="white" stroke="white" cy="5.04"/>
      <circle id="connector1pin" r="2.13732" stroke-width="2.16" cx="5.04" fill="white" stroke="white" cy="12.24"/>
      <circle id="connector2pin" r="2.13732" stroke-width="2.16" cx="5.04" fill="white" stroke="white" cy="19.44"/>
     </g>
    </g>
   </g>
  </g>
  <g partID="855430410">
   <g transform="translate(154.618,11.9216)">
    <g id="copper0">
     <circle id="connector0pin" r="2.13732" stroke-width="2.16" cx="5.04" fill="white" stroke="white" cy="5.04"/>
     <circle id="connector1pin" r="2.13732" stroke-width="2.16" cx="5.04" fill="white" stroke="white" cy="12.24"/>
     <circle id="connector2pin" r="2.13732" stroke-width="2.16" cx="5.04" fill="white" stroke="white" cy="19.44"/>
     <circle id="connector3pin" r="2.13732" stroke-width="2.16" cx="5.04" fill="white" stroke="white" cy="26.64"/>
     <circle id="connector4pin" r="2.13732" stroke-width="2.16" cx="5.04" fill="white" stroke="white" cy="33.84"/>
     <circle id="connector5pin" r="2.13732" stroke-width="2.16" cx="5.04" fill="white" stroke="white" cy="41.04"/>
     <circle id="connector6pin" r="2.13732" stroke-width="2.16" cx="5.04" fill="white" stroke="white" cy="48.24"/>
     <circle id="connector7pin" r="2.13732" stroke-width="2.16" cx="5.04" fill="white" stroke="white" cy="55.44"/>
     <circle id="connector8pin" r="2.13732" stroke-width="2.16" cx="5.04" fill="white" stroke="white" cy="62.64"/>
     <circle id="connector9pin" r="2.13732" stroke-width="2.16" cx="5.04" fill="white" stroke="white" cy="69.84"/>
     <circle id="connector10pin" r="2.13732" stroke-width="2.16" cx="5.04" fill="white" stroke="white" cy="77.04"/>
    </g>
   </g>
  </g>
  <g partID="855020840">
   <g transform="translate(17.8688,40.7128)">
    <g id="copper0">
     <circle id="connector0pin" r="2.13732" stroke-width="2.16" cx="5.04" fill="white" stroke="white" cy="5.04"/>
     <circle id="connector1pin" r="2.13732" stroke-width="2.16" cx="5.04" fill="white" stroke="white" cy="12.24"/>
     <circle id="connector2pin" r="2.13732" stroke-width="2.16" cx="5.04" fill="white" stroke="white" cy="19.44"/>
     <circle id="connector3pin" r="2.13732" stroke-width="2.16" cx="5.04" fill="white" stroke="white" cy="26.64"/>
     <circle id="connector4pin" r="2.13732" stroke-width="2.16" cx="5.04" fill="white" stroke="white" cy="33.84"/>
     <circle id="connector5pin" r="2.13732" stroke-width="2.16" cx="5.04" fill="white" stroke="white" cy="41.04"/>
     <circle id="connector6pin" r="2.13732" stroke-width="2.16" cx="5.04" fill="white" stroke="white" cy="48.24"/>
    </g>
   </g>
  </g>
  <g partID="855019210">
   <g transform="translate(89.8688,40.7128)">
    <g id="copper0">
     <circle id="connector0pin" r="2.13732" stroke-width="2.16" cx="5.04" fill="white" stroke="white" cy="5.04"/>
     <circle id="connector1pin" r="2.13732" stroke-width="2.16" cx="5.04" fill="white" stroke="white" cy="12.24"/>
     <circle id="connector2pin" r="2.13732" stroke-width="2.16" cx="5.04" fill="white" stroke="white" cy="19.44"/>
     <circle id="connector3pin" r="2.13732" stroke-width="2.16" cx="5.04" fill="white" stroke="white" cy="26.64"/>
     <circle id="connector4pin" r="2.13732" stroke-width="2.16" cx="5.04" fill="white" stroke="white" cy="33.84"/>
     <circle id="connector5pin" r="2.13732" stroke-width="2.16" cx="5.04" fill="white" stroke="white" cy="41.04"/>
     <circle id="connector6pin" r="2.13732" stroke-width="2.16" cx="5.04" fill="white" stroke="white" cy="48.24"/>
    </g>
   </g>
  </g>
  <g partID="855123710">
   <g transform="translate(17.8688,137.193)">
    <g transform="matrix(0,-1,1,0,0,0)">
     <g id="copper0">
      <circle id="connector0pin" r="2.13732" stroke-width="2.16" cx="5.04" fill="white" stroke="white" cy="5.04"/>
      <circle id="connector1pin" r="2.13732" stroke-width="2.16" cx="5.04" fill="white" stroke="white" cy="12.24"/>
      <circle id="connector2pin" r="2.13732" stroke-width="2.16" cx="5.04" fill="white" stroke="white" cy="19.44"/>
      <circle id="connector3pin" r="2.13732" stroke-width="2.16" cx="5.04" fill="white" stroke="white" cy="26.64"/>
      <circle id="connector4pin" r="2.13732" stroke-width="2.16" cx="5.04" fill="white" stroke="white" cy="33.84"/>
     </g>
    </g>
   </g>
  </g>
  <g partID="854963500">
   <g transform="translate(17.8688,122.793)">
    <g transform="matrix(0,-1,1,0,0,0)">
     <g id="copper0">
      <circle id="connector0pin" r="2.13732" stroke-width="2.16" cx="5.04" fill="white" stroke="white" cy="5.04"/>
      <circle id="connector1pin" r="2.13732" stroke-width="2.16" cx="5.04" fill="white" stroke="white" cy="12.24"/>
      <circle id="connector2pin" r="2.13732" stroke-width="2.16" cx="5.04" fill="white" stroke="white" cy="19.44"/>
      <circle id="connector3pin" r="2.13732" stroke-width="2.16" cx="5.04" fill="white" stroke="white" cy="26.64"/>
      <circle id="connector4pin" r="2.13732" stroke-width="2.16" cx="5.04" fill="white" stroke="white" cy="33.84"/>
     </g>
    </g>
   </g>
  </g>
  <g partID="855461960">
   <g transform="translate(17.8688,108.393)">
    <g transform="matrix(0,-1,1,0,0,0)">
     <g id="copper0">
      <circle id="connector0pin" r="1.70078" stroke-width="1.85386" cx="5.04" fill="white" stroke="white" cy="5.04"/>
      <circle id="connector1pin" r="1.70078" stroke-width="1.85386" cx="5.04" fill="white" stroke="white" cy="12.24"/>
      <circle id="connector2pin" r="1.70078" stroke-width="1.85386" cx="5.04" fill="white" stroke="white" cy="19.44"/>
      <circle id="connector3pin" r="1.70078" stroke-width="1.85386" cx="5.04" fill="white" stroke="white" cy="26.64"/>
      <circle id="connector4pin" r="1.70078" stroke-width="1.85386" cx="5.04" fill="white" stroke="white" cy="33.84"/>
     </g>
    </g>
   </g>
  </g>
  <g partID="854968230">
   <g transform="translate(105.762,97.7408)">
    <g transform="matrix(0,-1,1,0,0,0)">
     <g id="copper0">
      <g id="copper1">
       <circle id="connector1pad" r="1.7008" stroke-width="1.85384" cx="8.7876" fill="white" stroke="white" cy="10.6336"/>
       <rect stroke-width="1.85384" fill="white" width="3.4016" stroke="white" y="8.9328" x="7.0868" height="3.4016"/>
       <circle id="connector0pad" r="1.7008" stroke-width="1.85384" cx="8.7876" fill="white" stroke="white" cy="3.5464"/>
      </g>
     </g>
    </g>
   </g>
  </g>
  <g partID="854968260">
   <g transform="translate(126.555,32.1065)">
    <g transform="matrix(0,1,-1,0,0,0)">
     <g id="copper0">
      <circle id="connector0pad" r="1.98" stroke-width="2.16" cx="20.8462" fill="white" stroke="white" cy="15.6024"/>
      <circle id="connector1pad" r="1.98" stroke-width="2.16" cx="2.42064" fill="white" stroke="white" cy="15.6024"/>
      <circle id="connector2pad" r="1.98" stroke-width="2.16" cx="20.8462" fill="white" stroke="white" cy="2.84616"/>
      <circle id="connector3pad" r="1.98" stroke-width="2.16" cx="2.42064" fill="white" stroke="white" cy="2.84616"/>
     </g>
    </g>
   </g>
  </g>
  <g partID="855074040">
   <g transform="translate(148.405,100.653)">
    <g transform="matrix(0,1,-1,0,0,0)">
     <g id="copper0">
      <g id="copper1">
       <!-- <rect width="55" x="10" y="15.5" fill="none" height="55" stroke="rgb(255, 191, 0)" stroke-width="20" />  -->
       <circle id="connector0pin" r="1.98" stroke-width="2.16" fill="white" cx="2.7" stroke="white" cy="3.096"/>
       <circle id="connector1pin" r="1.98" stroke-width="2.16" fill="white" cx="31.5" stroke="white" cy="3.096"/>
      </g>
     </g>
    </g>
   </g>
  </g>
  <g partID="854968290">
   <g transform="translate(119.605,100.653)">
    <g transform="matrix(0,1,-1,0,0,0)">
     <g id="copper0">
      <g id="copper1">
       <!-- <rect width="55" x="10" y="15.5" fill="none" height="55" stroke="rgb(255, 191, 0)" stroke-width="20" />  -->
       <circle id="connector0pin" r="1.98" stroke-width="2.16" fill="white" cx="2.7" stroke="white" cy="3.096"/>
       <circle id="connector1pin" r="1.98" stroke-width="2.16" fill="white" cx="31.5" stroke="white" cy="3.096"/>
      </g>
     </g>
    </g>
   </g>
  </g>
  <g partID="854968320">
   <g transform="translate(99.9488,26.3128)">
    <g transform="matrix(0,1,-1,0,0,0)">
     <g id="copper0">
      <rect id="square" stroke-width="2.16" fill="white" width="4.176" stroke="white" y="2.952" x="2.952" height="4.176"/>
      <circle id="connector0pin" r="2.088" stroke-width="2.16" cx="5.04" fill="white" stroke="white" cy="5.04"/>
      <circle id="connector1pin" r="2.088" stroke-width="2.16" cx="5.04" fill="white" stroke="white" cy="12.24"/>
      <circle id="connector2pin" r="2.088" stroke-width="2.16" cx="5.04" fill="white" stroke="white" cy="19.44"/>
     </g>
    </g>
   </g>
  </g>
 </g>
</svg>
